<svg width="19" height="19" viewBox="0 0 19 19" fill="none" xmlns="http://www.w3.org/2000/svg">
<path fill-rule="evenodd" clip-rule="evenodd" d="M16.1664 3.27446C16.2617 3.37255 16.3399 3.49222 16.3967 3.62665C16.4535 3.76108 16.4876 3.90762 16.4972 4.05791C16.5068 4.20819 16.4916 4.35927 16.4526 4.50251C16.4135 4.64575 16.3513 4.77834 16.2695 4.8927L8.62708 15.5994C8.54139 15.7195 8.43597 15.8169 8.31742 15.8857C8.19888 15.9545 8.06977 15.9931 7.93821 15.9992C7.80664 16.0052 7.67546 15.9785 7.55289 15.9208C7.43032 15.863 7.31902 15.7755 7.22596 15.6637L2.76786 10.3103C2.59392 10.0938 2.49775 9.80402 2.50004 9.50324C2.50233 9.20246 2.60292 8.9148 2.78012 8.70221C2.95733 8.48962 3.19698 8.36911 3.44746 8.36664C3.69794 8.36417 3.93921 8.47993 4.1193 8.689L7.84882 13.1659L14.82 3.39988C14.9849 3.16921 15.2194 3.02659 15.4718 3.00336C15.7243 2.98013 15.9741 3.07666 16.1664 3.27446Z" fill="#29384D"/>
</svg>
