<svg width="26" height="24" viewBox="0 0 26 24" fill="none" xmlns="http://www.w3.org/2000/svg">
<path fill-rule="evenodd" clip-rule="evenodd" d="M13 2.625C13.3108 2.625 13.6089 2.74353 13.8286 2.9545C14.0484 3.16548 14.1719 3.45163 14.1719 3.75V10.875H21.5938C21.9046 10.875 22.2026 10.9935 22.4224 11.2045C22.6422 11.4155 22.7656 11.7016 22.7656 12C22.7656 12.2984 22.6422 12.5845 22.4224 12.7955C22.2026 13.0065 21.9046 13.125 21.5938 13.125H14.1719V20.25C14.1719 20.5484 14.0484 20.8345 13.8286 21.0455C13.6089 21.2565 13.3108 21.375 13 21.375C12.6892 21.375 12.3911 21.2565 12.1714 21.0455C11.9516 20.8345 11.8281 20.5484 11.8281 20.25V13.125H4.40625C4.09545 13.125 3.79738 13.0065 3.57761 12.7955C3.35784 12.5845 3.23438 12.2984 3.23438 12C3.23438 11.7016 3.35784 11.4155 3.57761 11.2045C3.79738 10.9935 4.09545 10.875 4.40625 10.875H11.8281V3.75C11.8281 3.45163 11.9516 3.16548 12.1714 2.9545C12.3911 2.74353 12.6892 2.625 13 2.625Z" fill="#E5F0FF"/>
</svg>
